<svg width="40" height="40" viewBox="0 0 40 40" fill="none" xmlns="http://www.w3.org/2000/svg">
<rect width="40" height="40" rx="6" fill="#FFC700"/>
<path d="M23.25 30H15.75C13.9598 30 12.2429 29.2888 10.977 28.023C9.71116 26.7571 9 25.0402 9 23.25V15.75C9 13.9598 9.71116 12.2429 10.977 10.977C12.2429 9.71116 13.9598 9 15.75 9H23.25C25.0402 9 26.7571 9.71116 28.023 10.977C29.2888 12.2429 30 13.9598 30 15.75V23.25C30 25.0402 29.2888 26.7571 28.023 28.023C26.7571 29.2888 25.0402 30 23.25 30ZM15.75 10.5C14.3576 10.5 13.0223 11.0531 12.0377 12.0377C11.0531 13.0223 10.5 14.3576 10.5 15.75V23.25C10.5 24.6424 11.0531 25.9777 12.0377 26.9623C13.0223 27.9469 14.3576 28.5 15.75 28.5H23.25C24.6424 28.5 25.9777 27.9469 26.9623 26.9623C27.9469 25.9777 28.5 24.6424 28.5 23.25V15.75C28.5 14.3576 27.9469 13.0223 26.9623 12.0377C25.9777 11.0531 24.6424 10.5 23.25 10.5H15.75Z" fill="black"/>
<path d="M19.5 24.75C18.7223 24.7564 17.9532 24.5872 17.25 24.255C17.0738 24.1682 16.9386 24.0156 16.8736 23.8302C16.8087 23.6448 16.8191 23.4413 16.9026 23.2634C16.9861 23.0856 17.1361 22.9476 17.3203 22.8792C17.5045 22.8107 17.7081 22.8173 17.8875 22.8975C18.7014 23.2736 19.6231 23.3457 20.4856 23.1006C21.348 22.8556 22.0941 22.3096 22.5887 21.5618C23.0832 20.8139 23.2934 19.9136 23.1811 19.024C23.0689 18.1345 22.6417 17.3146 21.9769 16.713C21.3121 16.1113 20.4538 15.7678 19.5575 15.7447C18.6612 15.7215 17.7863 16.0203 17.0913 16.5868C16.3963 17.1533 15.9273 17.95 15.7693 18.8326C15.6113 19.7151 15.7748 20.6251 16.23 21.3975C16.2843 21.4829 16.3207 21.5783 16.3371 21.6781C16.3535 21.7779 16.3496 21.88 16.3255 21.9783C16.3015 22.0765 16.2578 22.1689 16.1971 22.2498C16.1364 22.3308 16.06 22.3986 15.9724 22.4492C15.8848 22.4998 15.7879 22.5322 15.6875 22.5444C15.5871 22.5566 15.4853 22.5483 15.3881 22.5202C15.291 22.492 15.2005 22.4444 15.1222 22.3804C15.0439 22.3163 14.9794 22.2371 14.9325 22.1475C14.4728 21.3417 14.2372 20.4276 14.25 19.5C14.25 18.4617 14.5579 17.4466 15.1348 16.5833C15.7117 15.7199 16.5316 15.047 17.4909 14.6496C18.4502 14.2523 19.5058 14.1483 20.5242 14.3509C21.5426 14.5535 22.4781 15.0535 23.2123 15.7877C23.9465 16.5219 24.4466 17.4574 24.6491 18.4758C24.8517 19.4942 24.7477 20.5498 24.3504 21.5091C23.953 22.4684 23.2801 23.2883 22.4168 23.8652C21.5534 24.4421 20.5384 24.75 19.5 24.75Z" fill="black"/>
<path d="M25.1252 15.001C25.7466 15.001 26.2502 14.4973 26.2502 13.876C26.2502 13.2547 25.7466 12.751 25.1252 12.751C24.5039 12.751 24.0002 13.2547 24.0002 13.876C24.0002 14.4973 24.5039 15.001 25.1252 15.001Z" fill="black"/>
</svg>
